<svg id="Camada_1" data-name="Camada 1" xmlns="http://www.w3.org/2000/svg" viewBox="0 0 100 19.8"><defs><style>.cls-1{font-size:16.81px;fill:#383838;font-family:ObjektivMk1-Bold, Objektiv Mk1;font-weight:700;letter-spacing:-0.03em;}.cls-2{letter-spacing:-0.02em;}.cls-3{letter-spacing:-0.02em;}.cls-4{fill:#ffc127;}</style></defs><text class="cls-1" transform="translate(23.71 14.79)">m<tspan class="cls-2" x="15.4" y="0">e</tspan><tspan class="cls-3" x="25.22" y="0">altime</tspan></text><path class="cls-4" d="M108.64,68.2V65.8a4.54,4.54,0,0,1,.65,0V68.2a.33.33,0,1,1-.65,0Z" transform="translate(-100 -65.1)"/><path class="cls-4" d="M109.86,68.2V65.76a4.78,4.78,0,0,1,.66,0v2.4a.33.33,0,0,1-.33.33A.33.33,0,0,1,109.86,68.2Z" transform="translate(-100 -65.1)"/><path class="cls-4" d="M109,69.51l-.33,5.79-2.55,3.49-3,3.57a9.54,9.54,0,0,1,5-16.47V68.2A1.41,1.41,0,0,0,109,69.51Z" transform="translate(-100 -65.1)"/><path class="cls-4" d="M119.15,75.31a9.55,9.55,0,0,1-14.63,8.13,5.46,5.46,0,0,0,1.38-1.16A4.36,4.36,0,0,0,107,79.69l3.42-3.58s0-.07.06-.11l0-.08a.57.57,0,0,0,0-.13.13.13,0,0,0,0-.08l-.34-6.21a1.41,1.41,0,0,0,.88-1.3V65.89A9.54,9.54,0,0,1,119.15,75.31Z" transform="translate(-100 -65.1)"/></svg>